<svg xmlns="http://www.w3.org/2000/svg" xmlns:xlink="http://www.w3.org/1999/xlink" width="500" zoomAndPan="magnify" viewBox="0 0 375 374.999991" height="500" preserveAspectRatio="xMidYMid meet" version="1.0"><defs><filter x="0%" y="0%" width="100%" height="100%" id="6a2a1171d9"><feColorMatrix values="0 0 0 0 1 0 0 0 0 1 0 0 0 0 1 0 0 0 1 0" color-interpolation-filters="sRGB"/></filter><clipPath id="e87c891b4a"><path d="M 35.859375 276 L 339.53125 276 L 339.53125 368.257812 L 35.859375 368.257812 Z M 35.859375 276 " clip-rule="nonzero"/></clipPath><clipPath id="7dba2a9964"><path d="M 35.859375 275 L 188 275 L 188 368.257812 L 35.859375 368.257812 Z M 35.859375 275 " clip-rule="nonzero"/></clipPath><mask id="07fb8db93f"><g filter="url(#6a2a1171d9)"><rect x="-37.5" width="450" fill="#000000" y="-37.499999" height="449.999989" fill-opacity="0.2"/></g></mask><clipPath id="6fe09916ed"><path d="M 0.859375 1 L 152.679688 1 L 152.679688 93.257812 L 0.859375 93.257812 Z M 0.859375 1 " clip-rule="nonzero"/></clipPath><clipPath id="c2e443b7b6"><rect x="0" width="153" y="0" height="94"/></clipPath><clipPath id="92fe982f31"><path d="M 187 275 L 339.53125 275 L 339.53125 368.257812 L 187 368.257812 Z M 187 275 " clip-rule="nonzero"/></clipPath><mask id="3b713cd54b"><g filter="url(#6a2a1171d9)"><rect x="-37.5" width="450" fill="#000000" y="-37.499999" height="449.999989" fill-opacity="0.3"/></g></mask><clipPath id="4e96224ebc"><path d="M 0.441406 1 L 152.359375 1 L 152.359375 93.257812 L 0.441406 93.257812 Z M 0.441406 1 " clip-rule="nonzero"/></clipPath><clipPath id="b336548c0d"><rect x="0" width="153" y="0" height="94"/></clipPath><clipPath id="7a899570d1"><path d="M 35.859375 190 L 339.53125 190 L 339.53125 277 L 35.859375 277 Z M 35.859375 190 " clip-rule="nonzero"/></clipPath><clipPath id="cc976b0554"><path d="M 35.859375 190 L 188 190 L 188 277 L 35.859375 277 Z M 35.859375 190 " clip-rule="nonzero"/></clipPath><mask id="17d3b4909f"><g filter="url(#6a2a1171d9)"><rect x="-37.5" width="450" fill="#000000" y="-37.499999" height="449.999989" fill-opacity="0.2"/></g></mask><clipPath id="80a868fc65"><path d="M 0.859375 0.558594 L 152.679688 0.558594 L 152.679688 86.238281 L 0.859375 86.238281 Z M 0.859375 0.558594 " clip-rule="nonzero"/></clipPath><clipPath id="68447c0cf7"><rect x="0" width="153" y="0" height="87"/></clipPath><clipPath id="494a1165e2"><path d="M 187 190 L 339.53125 190 L 339.53125 277 L 187 277 Z M 187 190 " clip-rule="nonzero"/></clipPath><mask id="fd14ebd18c"><g filter="url(#6a2a1171d9)"><rect x="-37.5" width="450" fill="#000000" y="-37.499999" height="449.999989" fill-opacity="0.3"/></g></mask><clipPath id="f499030e43"><path d="M 0.441406 0.558594 L 152.359375 0.558594 L 152.359375 86.238281 L 0.441406 86.238281 Z M 0.441406 0.558594 " clip-rule="nonzero"/></clipPath><clipPath id="19f8b3083c"><rect x="0" width="153" y="0" height="87"/></clipPath><clipPath id="ce4f15d745"><path d="M 35.859375 98 L 188 98 L 188 191 L 35.859375 191 Z M 35.859375 98 " clip-rule="nonzero"/></clipPath><clipPath id="3cafdd3228"><path d="M 187 98 L 339.53125 98 L 339.53125 191 L 187 191 Z M 187 98 " clip-rule="nonzero"/></clipPath><clipPath id="dafdd13969"><path d="M 35.859375 6.742188 L 339.53125 6.742188 L 339.53125 191 L 35.859375 191 Z M 35.859375 6.742188 " clip-rule="nonzero"/></clipPath><clipPath id="384813c3d6"><path d="M 35.859375 98 L 188 98 L 188 192 L 35.859375 192 Z M 35.859375 98 " clip-rule="nonzero"/></clipPath><mask id="a19e3025ff"><g filter="url(#6a2a1171d9)"><rect x="-37.5" width="450" fill="#000000" y="-37.499999" height="449.999989" fill-opacity="0.2"/></g></mask><clipPath id="8b3b3d83ea"><path d="M 0.859375 0.398438 L 152.679688 0.398438 L 152.679688 93 L 0.859375 93 Z M 0.859375 0.398438 " clip-rule="nonzero"/></clipPath><clipPath id="18a8ffe816"><rect x="0" width="153" y="0" height="94"/></clipPath><mask id="5585cb9469"><g filter="url(#6a2a1171d9)"><rect x="-37.5" width="450" fill="#000000" y="-37.499999" height="449.999989" fill-opacity="0.2"/></g></mask><clipPath id="9aed87b99f"><path d="M 1 0.558594 L 1.679688 0.558594 L 1.679688 1 L 1 1 Z M 1 0.558594 " clip-rule="nonzero"/></clipPath><clipPath id="75db3b72bc"><rect x="0" width="2" y="0" height="2"/></clipPath><clipPath id="73f1749cf7"><path d="M 187 98 L 339.53125 98 L 339.53125 192 L 187 192 Z M 187 98 " clip-rule="nonzero"/></clipPath><mask id="9791672ac1"><g filter="url(#6a2a1171d9)"><rect x="-37.5" width="450" fill="#000000" y="-37.499999" height="449.999989" fill-opacity="0.3"/></g></mask><clipPath id="2c819b335c"><path d="M 0.441406 0.398438 L 152.359375 0.398438 L 152.359375 93 L 0.441406 93 Z M 0.441406 0.398438 " clip-rule="nonzero"/></clipPath><clipPath id="768f50b7c0"><rect x="0" width="153" y="0" height="94"/></clipPath><clipPath id="92492beb01"><path d="M 35.859375 6.742188 L 339.53125 6.742188 L 339.53125 192 L 35.859375 192 Z M 35.859375 6.742188 " clip-rule="nonzero"/></clipPath><mask id="09b5a7f9a9"><g filter="url(#6a2a1171d9)"><rect x="-37.5" width="450" fill="#000000" y="-37.499999" height="449.999989" fill-opacity="0.7"/></g></mask><clipPath id="46817e9363"><path d="M 0.859375 0.742188 L 304.359375 0.742188 L 304.359375 185 L 0.859375 185 Z M 0.859375 0.742188 " clip-rule="nonzero"/></clipPath><clipPath id="daaa8b589f"><rect x="0" width="305" y="0" height="186"/></clipPath><clipPath id="ecdb62ba55"><path d="M 107 52 L 267.796875 52 L 267.796875 323 L 107 323 Z M 107 52 " clip-rule="nonzero"/></clipPath></defs><g clip-path="url(#e87c891b4a)"><path fill="#04583a" d="M 187.496094 276.15625 L 35.859375 276.15625 L 187.492188 368.097656 L 187.496094 368.097656 L 339.136719 276.15625 Z M 187.496094 276.15625 " fill-opacity="1" fill-rule="nonzero"/></g><g clip-path="url(#7dba2a9964)"><g mask="url(#07fb8db93f)"><g transform="matrix(1, 0, 0, 1, 35, 275)"><g clip-path="url(#c2e443b7b6)"><g clip-path="url(#6fe09916ed)"><path fill="#c1ff72" d="M 0.859375 1.15625 L 152.492188 93.097656 L 152.496094 93.097656 L 152.496094 1.15625 Z M 0.859375 1.15625 " fill-opacity="1" fill-rule="nonzero"/></g></g></g></g></g><g clip-path="url(#92fe982f31)"><g mask="url(#3b713cd54b)"><g transform="matrix(1, 0, 0, 1, 187, 275)"><g clip-path="url(#b336548c0d)"><g clip-path="url(#4e96224ebc)"><path fill="#c1ff72" d="M 0.496094 93.097656 L 152.136719 1.15625 L 0.496094 1.15625 Z M 0.496094 93.097656 " fill-opacity="1" fill-rule="nonzero"/></g></g></g></g></g><g clip-path="url(#7a899570d1)"><path fill="#04583a" d="M 187.496094 190.792969 L 35.859375 190.792969 L 35.859375 276.15625 L 339.136719 276.15625 L 339.136719 190.792969 Z M 187.496094 190.792969 " fill-opacity="1" fill-rule="nonzero"/></g><g clip-path="url(#cc976b0554)"><g mask="url(#17d3b4909f)"><g transform="matrix(1, 0, 0, 1, 35, 190)"><g clip-path="url(#68447c0cf7)"><g clip-path="url(#80a868fc65)"><path fill="#c1ff72" d="M 152.496094 28.238281 L 152.496094 0.792969 L 0.859375 0.792969 L 0.859375 86.15625 L 152.496094 86.15625 Z M 152.496094 28.238281 " fill-opacity="1" fill-rule="nonzero"/></g></g></g></g></g><g clip-path="url(#494a1165e2)"><g mask="url(#fd14ebd18c)"><g transform="matrix(1, 0, 0, 1, 187, 190)"><g clip-path="url(#19f8b3083c)"><g clip-path="url(#f499030e43)"><path fill="#c1ff72" d="M 0.496094 0.792969 L 0.496094 86.15625 L 152.136719 86.15625 L 152.136719 0.792969 Z M 0.496094 0.792969 " fill-opacity="1" fill-rule="nonzero"/></g></g></g></g></g><path fill="#04583a" d="M 187.492188 190.792969 L 187.496094 190.792969 L 187.496094 190.789062 Z M 187.492188 190.792969 " fill-opacity="1" fill-rule="nonzero"/><g clip-path="url(#ce4f15d745)"><path fill="#04583a" d="M 35.859375 98.847656 L 35.859375 190.792969 L 187.492188 190.792969 L 35.863281 98.847656 Z M 35.859375 98.847656 " fill-opacity="1" fill-rule="nonzero"/></g><g clip-path="url(#3cafdd3228)"><path fill="#04583a" d="M 187.496094 190.789062 L 187.496094 190.792969 L 339.136719 190.792969 L 339.136719 98.847656 L 339.128906 98.847656 Z M 187.496094 190.789062 " fill-opacity="1" fill-rule="nonzero"/></g><g clip-path="url(#dafdd13969)"><path fill="#04583a" d="M 339.128906 98.847656 L 339.136719 98.84375 L 187.492188 6.902344 L 35.859375 98.84375 L 35.863281 98.847656 L 187.492188 190.792969 L 187.496094 190.789062 Z M 339.128906 98.847656 " fill-opacity="1" fill-rule="nonzero"/></g><g clip-path="url(#384813c3d6)"><g mask="url(#a19e3025ff)"><g transform="matrix(1, 0, 0, 1, 35, 98)"><g clip-path="url(#18a8ffe816)"><g clip-path="url(#8b3b3d83ea)"><path fill="#c1ff72" d="M 0.859375 0.847656 L 0.859375 92.792969 L 152.492188 92.792969 L 0.863281 0.847656 Z M 0.859375 0.847656 " fill-opacity="1" fill-rule="nonzero"/></g></g></g></g></g><g mask="url(#5585cb9469)"><g transform="matrix(1, 0, 0, 1, 186, 190)"><g clip-path="url(#75db3b72bc)"><g clip-path="url(#9aed87b99f)"><path fill="#c1ff72" d="M 1.492188 0.792969 L 1.496094 0.792969 L 1.496094 0.789062 Z M 1.492188 0.792969 " fill-opacity="1" fill-rule="nonzero"/></g></g></g></g><g clip-path="url(#73f1749cf7)"><g mask="url(#9791672ac1)"><g transform="matrix(1, 0, 0, 1, 187, 98)"><g clip-path="url(#768f50b7c0)"><g clip-path="url(#2c819b335c)"><path fill="#c1ff72" d="M 0.496094 92.789062 L 0.496094 92.792969 L 152.136719 92.792969 L 152.136719 0.847656 L 152.128906 0.847656 Z M 0.496094 92.789062 " fill-opacity="1" fill-rule="nonzero"/></g></g></g></g></g><g clip-path="url(#92492beb01)"><g mask="url(#09b5a7f9a9)"><g transform="matrix(1, 0, 0, 1, 35, 6)"><g clip-path="url(#daaa8b589f)"><g clip-path="url(#46817e9363)"><path fill="#c1ff72" d="M 304.128906 92.847656 L 304.136719 92.84375 L 152.492188 0.902344 L 0.859375 92.84375 L 0.863281 92.847656 L 152.492188 184.792969 L 152.496094 184.789062 Z M 304.128906 92.847656 " fill-opacity="1" fill-rule="nonzero"/></g></g></g></g></g><g clip-path="url(#ecdb62ba55)"><path fill="#ffffff" d="M 203.34375 143.390625 C 200.179688 145.015625 196.332031 146.640625 191.890625 148.347656 C 191.890625 141.425781 191.890625 136.464844 192.574219 132.621094 C 192.828125 130.996094 193.257812 129.542969 193.855469 128.347656 C 194.453125 126.894531 195.222656 125.609375 195.90625 124.671875 C 197.785156 122.191406 200.691406 120.054688 204.796875 117.917969 C 207.957031 116.292969 211.804688 114.667969 216.25 112.960938 C 216.335938 119.882812 216.25 124.839844 215.566406 128.6875 C 215.308594 130.3125 214.882812 131.765625 214.285156 132.960938 C 213.6875 134.414062 212.917969 135.699219 212.234375 136.636719 C 210.351562 139.117188 207.445312 141.253906 203.34375 143.304688 Z M 191.890625 290.757812 L 191.890625 318.195312 C 191.890625 320.589844 189.921875 322.554688 187.53125 322.554688 C 185.136719 322.554688 183.167969 320.589844 183.167969 318.195312 L 183.167969 290.671875 C 180.605469 290.585938 178.125 290.328125 175.5625 289.902344 L 175.476562 289.902344 L 174.878906 289.816406 L 174.621094 289.816406 L 174.367188 289.730469 L 174.109375 289.730469 C 171.628906 289.304688 169.066406 288.707031 166.585938 288.105469 L 166.332031 288.105469 L 166.332031 288.019531 L 165.902344 287.9375 L 165.304688 287.765625 C 152.054688 284.003906 140.175781 276.824219 130.769531 267.335938 C 116.152344 252.71875 107.179688 232.628906 107.179688 210.320312 C 107.179688 188.097656 116.152344 167.921875 130.769531 153.390625 C 134.445312 149.714844 138.378906 146.382812 142.738281 143.476562 L 142.738281 146.808594 C 142.738281 149.289062 142.738281 151.765625 142.738281 154.332031 C 140.6875 155.957031 138.804688 157.664062 137.011719 159.460938 C 124.019531 172.453125 115.984375 190.402344 115.984375 210.234375 C 115.984375 230.066406 124.019531 248.015625 137.011719 261.011719 C 143.421875 267.421875 151.113281 272.71875 159.75 276.3125 L 160.089844 276.480469 C 167.613281 279.558594 175.390625 281.441406 183.339844 281.867188 L 183.339844 261.523438 C 177.273438 259.300781 172.144531 257.25 167.953125 255.113281 C 162.742188 252.375 158.808594 249.46875 156.074219 245.878906 C 154.960938 244.425781 153.851562 242.546875 152.910156 240.410156 C 152.140625 238.527344 151.542969 236.476562 151.113281 234.167969 C 150.347656 229.554688 150.347656 223.996094 150.347656 216.132812 L 150.347656 204.507812 L 152.824219 205.449219 C 152.140625 203.652344 151.542969 201.6875 151.113281 199.550781 C 150.347656 194.933594 150.347656 189.378906 150.347656 181.515625 L 150.347656 169.890625 L 152.824219 170.742188 C 152.140625 168.949219 151.542969 166.984375 151.113281 164.847656 C 150.347656 160.230469 150.347656 154.671875 150.347656 146.808594 L 150.347656 135.183594 L 152.824219 136.125 C 152.140625 134.328125 151.542969 132.363281 151.113281 130.226562 C 150.859375 128.601562 150.6875 126.808594 150.515625 124.839844 C 150.429688 124.5 150.347656 124.070312 150.347656 123.644531 L 150.347656 119.285156 C 150.347656 117.234375 150.347656 114.925781 150.347656 112.445312 L 150.347656 56.800781 C 150.347656 54.40625 152.3125 52.441406 154.707031 52.441406 C 157.097656 52.441406 159.066406 54.40625 159.066406 56.800781 L 159.066406 103.644531 C 165.21875 105.863281 170.347656 107.917969 174.535156 110.140625 C 178.125 111.933594 181.03125 113.898438 183.425781 116.039062 L 183.425781 76.03125 C 183.425781 73.640625 185.390625 71.671875 187.785156 71.671875 C 190.179688 71.671875 192.144531 73.640625 192.144531 76.03125 L 192.144531 116.039062 C 194.539062 113.816406 197.445312 111.933594 201.035156 110.054688 C 205.308594 107.832031 210.4375 105.78125 216.507812 103.558594 L 216.507812 56.714844 C 216.507812 54.320312 218.472656 52.355469 220.867188 52.355469 C 223.257812 52.355469 225.226562 54.320312 225.226562 56.714844 L 225.226562 112.277344 C 225.226562 114.839844 225.226562 117.148438 225.226562 119.285156 L 225.226562 123.558594 C 225.226562 123.902344 225.140625 124.328125 225.054688 124.757812 C 224.96875 126.722656 224.796875 128.515625 224.457031 130.140625 C 224.113281 132.277344 223.429688 134.246094 222.746094 136.039062 L 225.226562 135.097656 L 225.226562 146.722656 C 225.226562 154.503906 225.226562 160.144531 224.457031 164.761719 C 224.113281 166.984375 223.429688 168.863281 222.746094 170.660156 L 225.226562 169.804688 L 225.226562 181.429688 C 225.226562 189.207031 225.226562 194.847656 224.457031 199.464844 C 224.113281 201.601562 223.429688 203.566406 222.746094 205.363281 L 225.226562 204.421875 L 225.226562 216.046875 C 225.226562 223.828125 225.226562 229.46875 224.457031 234.085938 C 224.027344 236.390625 223.34375 238.445312 222.660156 240.324219 C 221.722656 242.546875 220.609375 244.339844 219.5 245.792969 C 216.761719 249.46875 212.917969 252.292969 207.617188 255.027344 C 203.34375 257.25 198.214844 259.300781 192.144531 261.523438 L 192.144531 281.78125 C 194.796875 281.695312 197.359375 281.355469 200.007812 280.839844 L 200.265625 280.839844 C 203 280.414062 205.652344 279.730469 208.300781 278.960938 L 208.558594 278.875 L 208.8125 278.789062 L 209.070312 278.703125 L 209.242188 278.617188 C 220.4375 275.113281 230.355469 268.960938 238.390625 260.925781 C 251.382812 247.929688 259.417969 229.980469 259.417969 210.148438 C 259.417969 190.320312 251.382812 172.367188 238.390625 159.375 C 236.59375 157.578125 234.628906 155.785156 232.578125 154.246094 C 232.578125 151.683594 232.578125 149.203125 232.578125 146.722656 L 232.578125 143.390625 C 236.851562 146.296875 240.867188 149.628906 244.542969 153.304688 C 259.074219 167.835938 268.136719 188.011719 268.136719 210.234375 C 268.136719 232.460938 259.160156 252.632812 244.542969 267.25 C 235.140625 276.652344 223.34375 283.746094 210.179688 287.59375 L 209.925781 287.679688 L 209.328125 287.851562 L 208.984375 287.9375 L 208.898438 288.019531 L 208.644531 288.105469 C 206.421875 288.707031 204.113281 289.21875 201.804688 289.558594 L 201.546875 289.644531 L 200.949219 289.730469 L 200.691406 289.816406 L 200.265625 289.902344 L 199.753906 289.988281 L 199.667969 289.988281 C 197.101562 290.328125 194.625 290.585938 192.058594 290.757812 Z M 158.894531 112.960938 C 163.425781 114.667969 167.183594 116.292969 170.347656 117.917969 C 174.449219 120.054688 177.441406 122.191406 179.238281 124.671875 C 179.921875 125.609375 180.691406 126.894531 181.289062 128.347656 C 181.800781 129.542969 182.230469 130.996094 182.570312 132.621094 C 182.914062 134.757812 183.085938 137.320312 183.167969 140.3125 C 183.167969 142.707031 183.167969 145.355469 183.167969 148.261719 C 178.726562 146.554688 174.878906 144.929688 171.800781 143.304688 C 167.699219 141.167969 164.792969 139.117188 162.910156 136.636719 C 162.226562 135.699219 161.457031 134.414062 160.773438 132.960938 C 160.261719 131.679688 159.835938 130.3125 159.492188 128.6875 C 158.808594 124.839844 158.808594 119.882812 158.894531 112.960938 Z M 183.171875 252.292969 C 178.726562 250.582031 174.878906 248.957031 171.800781 247.332031 C 167.699219 245.195312 164.792969 243.058594 162.910156 240.582031 C 162.226562 239.640625 161.457031 238.445312 160.773438 236.90625 C 160.261719 235.621094 159.835938 234.253906 159.492188 232.628906 C 158.808594 228.785156 158.808594 223.742188 158.894531 216.902344 C 163.425781 218.613281 167.183594 220.238281 170.347656 221.859375 C 174.449219 223.996094 177.441406 226.132812 179.238281 228.613281 C 179.921875 229.554688 180.691406 230.75 181.289062 232.289062 C 181.800781 233.570312 182.230469 234.9375 182.570312 236.5625 C 182.914062 238.699219 183.085938 241.265625 183.167969 244.257812 C 183.167969 246.648438 183.167969 249.300781 183.167969 252.292969 Z M 183.171875 217.585938 C 178.726562 215.875 174.878906 214.339844 171.800781 212.628906 C 167.699219 210.492188 164.792969 208.441406 162.910156 205.960938 C 162.226562 205.019531 161.457031 203.738281 160.773438 202.285156 C 160.261719 201.003906 159.835938 199.636719 159.492188 198.011719 C 158.808594 194.164062 158.808594 189.207031 158.894531 182.285156 C 163.425781 183.992188 167.183594 185.617188 170.347656 187.242188 C 174.449219 189.378906 177.441406 191.515625 179.238281 193.996094 C 179.921875 194.933594 180.691406 196.214844 181.289062 197.667969 C 181.800781 198.867188 182.230469 200.320312 182.570312 201.945312 C 182.914062 204.082031 183.085938 206.644531 183.167969 209.636719 C 183.167969 212.03125 183.167969 214.679688 183.167969 217.585938 Z M 183.171875 182.96875 C 178.726562 181.257812 174.878906 179.632812 171.800781 178.007812 C 167.699219 175.871094 164.792969 173.734375 162.910156 171.257812 C 162.226562 170.316406 161.457031 169.121094 160.773438 167.582031 C 160.261719 166.300781 159.835938 164.929688 159.492188 163.308594 C 158.808594 159.460938 158.808594 154.417969 158.894531 147.578125 C 163.425781 149.289062 167.183594 150.914062 170.347656 152.535156 C 174.449219 154.671875 177.441406 156.8125 179.238281 159.203125 C 179.921875 160.230469 180.691406 161.425781 181.289062 162.878906 C 181.800781 164.160156 182.230469 165.53125 182.570312 167.152344 C 182.914062 169.289062 183.085938 171.855469 183.167969 174.847656 C 183.167969 177.242188 183.167969 179.890625 183.167969 182.882812 Z M 203.429688 212.714844 C 200.265625 214.339844 196.417969 215.960938 191.972656 217.671875 C 191.972656 210.75 191.972656 205.789062 192.65625 201.945312 C 192.914062 200.320312 193.34375 198.867188 193.941406 197.667969 C 194.539062 196.214844 195.308594 194.933594 195.992188 193.996094 C 197.871094 191.515625 200.777344 189.378906 204.882812 187.242188 C 208.042969 185.617188 211.890625 183.992188 216.335938 182.285156 C 216.421875 189.207031 216.335938 194.164062 215.652344 198.011719 C 215.394531 199.636719 214.96875 201.089844 214.371094 202.285156 C 213.773438 203.738281 213.003906 205.019531 212.316406 205.960938 C 210.4375 208.441406 207.53125 210.578125 203.429688 212.628906 Z M 203.429688 247.417969 C 200.265625 249.042969 196.417969 250.667969 191.972656 252.375 C 191.972656 251.265625 191.972656 250.238281 191.972656 249.300781 L 191.972656 248.699219 C 191.972656 243.65625 192.058594 239.8125 192.65625 236.648438 C 192.914062 235.023438 193.34375 233.570312 193.941406 232.375 C 194.539062 230.921875 195.308594 229.722656 195.992188 228.699219 C 197.871094 226.21875 200.777344 224.082031 204.882812 221.945312 C 208.042969 220.320312 211.890625 218.699219 216.335938 216.988281 C 216.421875 223.828125 216.335938 228.871094 215.652344 232.714844 C 215.394531 234.339844 214.96875 235.792969 214.371094 236.992188 C 213.773438 238.445312 213.003906 239.640625 212.316406 240.664062 C 210.4375 243.144531 207.53125 245.28125 203.429688 247.417969 Z M 203.429688 178.09375 C 200.265625 179.71875 196.417969 181.34375 191.972656 183.054688 C 191.972656 176.214844 191.972656 171.171875 192.65625 167.324219 C 192.914062 165.699219 193.34375 164.246094 193.941406 163.050781 C 194.539062 161.597656 195.308594 160.402344 195.992188 159.375 C 197.871094 156.894531 200.777344 154.757812 204.882812 152.707031 C 208.042969 151.082031 211.890625 149.460938 216.335938 147.75 C 216.421875 154.589844 216.335938 159.632812 215.652344 163.476562 C 215.394531 165.101562 214.96875 166.554688 214.371094 167.753906 C 213.773438 169.207031 213.003906 170.402344 212.316406 171.425781 C 210.4375 173.90625 207.53125 176.042969 203.429688 178.179688 Z M 203.429688 178.09375 " fill-opacity="1" fill-rule="evenodd"/></g></svg>